<svg width="18" height="18" viewBox="0 0 18 18" fill="none" xmlns="http://www.w3.org/2000/svg">
<g clip-path="url(#clip0_267_185)">
<path d="M7.875 15.375L15.375 7.875C15.7255 7.53156 16.0044 7.12204 16.1956 6.67014C16.3868 6.21824 16.4865 5.73292 16.489 5.24224C16.4915 4.75155 16.3966 4.26525 16.21 3.81144C16.0234 3.35763 15.7486 2.94532 15.4017 2.59835C15.0547 2.25138 14.6424 1.97664 14.1886 1.79001C13.7348 1.60337 13.2485 1.50856 12.7578 1.51103C12.2671 1.51351 11.7818 1.61324 11.3299 1.80445C10.878 1.99565 10.4684 2.27455 10.125 2.625L2.625 10.125C2.27455 10.4684 1.99565 10.878 1.80445 11.3299C1.61324 11.7818 1.51351 12.2671 1.51103 12.7578C1.50856 13.2485 1.60337 13.7348 1.79001 14.1886C1.97664 14.6424 2.25138 15.0547 2.59835 15.4017C2.94532 15.7486 3.35763 16.0234 3.81144 16.21C4.26525 16.3966 4.75155 16.4915 5.24224 16.489C5.73292 16.4865 6.21824 16.3868 6.67014 16.1956C7.12204 16.0044 7.53156 15.7255 7.875 15.375Z" stroke="black" stroke-width="2" stroke-linecap="round" stroke-linejoin="round"/>
<path d="M6.375 6.375L11.625 11.625" stroke="black" stroke-width="2" stroke-linecap="round" stroke-linejoin="round"/>
</g>
<defs>
<clipPath id="clip0_267_185">
<rect width="18" height="18" fill="white"/>
</clipPath>
</defs>
</svg>
